<svg width="30" height="30" viewBox="0 0 30 30" fill="none" xmlns="http://www.w3.org/2000/svg">
<path d="M25.7812 8.4375H19.6875V2.34375C19.6875 2.21943 19.6381 2.1002 19.5502 2.01229C19.4623 1.92439 19.3431 1.875 19.2188 1.875H6.09375C5.96943 1.875 5.8502 1.92439 5.76229 2.01229C5.67439 2.1002 5.625 2.21943 5.625 2.34375V15.4688C5.625 15.5931 5.67439 15.7123 5.76229 15.8002C5.8502 15.8881 5.96943 15.9375 6.09375 15.9375H18.75V23.4375H6.09375C5.96943 23.4375 5.8502 23.4869 5.76229 23.5748C5.67439 23.6627 5.625 23.7819 5.625 23.9062V27.6562C5.625 27.7806 5.67439 27.8998 5.76229 27.9877C5.8502 28.0756 5.96943 28.125 6.09375 28.125H25.7812C25.9056 28.125 26.0248 28.0756 26.1127 27.9877C26.2006 27.8998 26.25 27.7806 26.25 27.6562V8.90625C26.25 8.78193 26.2006 8.6627 26.1127 8.57479C26.0248 8.48689 25.9056 8.4375 25.7812 8.4375Z" fill="#EEEEEE"/>
<path d="M19.2188 15H4.21875C3.95987 15 3.75 15.2099 3.75 15.4688V23.9062C3.75 24.1651 3.95987 24.375 4.21875 24.375H19.2188C19.4776 24.375 19.6875 24.1651 19.6875 23.9062V15.4688C19.6875 15.2099 19.4776 15 19.2188 15Z" fill="#66BB6A"/>
<path d="M26.1141 8.57348L19.5516 2.01098C19.486 1.94487 19.4022 1.89979 19.3109 1.88147C19.2197 1.86316 19.125 1.87244 19.039 1.90815C18.953 1.94385 18.8796 2.00435 18.8281 2.08194C18.7767 2.15953 18.7495 2.25069 18.75 2.34379V8.90629C18.75 9.03061 18.7994 9.14984 18.8873 9.23775C18.9752 9.32565 19.0944 9.37504 19.2188 9.37504H25.7812C25.8744 9.37558 25.9655 9.34838 26.0431 9.29691C26.1207 9.24545 26.1812 9.17204 26.2169 9.08605C26.2526 9.00006 26.2619 8.90538 26.2436 8.8141C26.2253 8.72281 26.1802 8.63904 26.1141 8.57348Z" fill="#E0E0E0"/>
<path d="M7.16719 21.5625L8.4375 19.5891L7.25625 17.8125H8.16563L8.86875 18.9328L9.54844 17.8125H10.4297L9.31407 19.5656L10.6219 21.5625H9.68438L8.85938 20.1844L8.04375 21.5625H7.16719ZM11.0859 21.5625V17.8125H11.8781V20.85H13.125V21.5625H11.0859ZM13.4297 20.4469H14.2125C14.2452 20.602 14.3342 20.7396 14.4623 20.833C14.5904 20.9265 14.7485 20.9693 14.9063 20.9531C15.0529 20.9606 15.1979 20.9194 15.3188 20.8359C15.3681 20.8001 15.408 20.7528 15.435 20.6981C15.462 20.6433 15.4751 20.5829 15.4734 20.5219C15.4778 20.4408 15.4548 20.3607 15.408 20.2943C15.3612 20.228 15.2935 20.1793 15.2156 20.1563C15.1813 20.1563 15.025 20.1094 14.7469 20.0156C14.4527 19.9524 14.1709 19.8416 13.9125 19.6875C13.7878 19.5966 13.6875 19.4763 13.6204 19.3373C13.5533 19.1983 13.5217 19.0448 13.5281 18.8906C13.5218 18.7343 13.55 18.5784 13.6107 18.4342C13.6715 18.29 13.7633 18.1609 13.8797 18.0563C14.1405 17.8355 14.476 17.7231 14.8172 17.7422C15.1537 17.7293 15.4845 17.8319 15.7547 18.0328C15.8729 18.1192 15.9692 18.232 16.0359 18.3622C16.1026 18.4924 16.138 18.6365 16.1391 18.7828H15.3516C15.3266 18.6658 15.2579 18.5627 15.1594 18.4947C15.0609 18.4268 14.9402 18.399 14.8219 18.4172C14.6935 18.4111 14.5667 18.4473 14.4609 18.5203C14.4177 18.552 14.3827 18.5938 14.359 18.6419C14.3354 18.6901 14.3237 18.7432 14.325 18.7969C14.3215 18.8565 14.3357 18.9159 14.3657 18.9676C14.3957 19.0192 14.4402 19.0609 14.4938 19.0875C14.6819 19.1662 14.8785 19.2228 15.0797 19.2563C15.34 19.2998 15.5907 19.3887 15.8203 19.5188C15.9697 19.6142 16.0915 19.747 16.1737 19.9041C16.256 20.0611 16.2957 20.2369 16.2891 20.4141C16.2968 20.6118 16.2519 20.8081 16.1588 20.9827C16.0657 21.1573 15.9279 21.304 15.7594 21.4078C15.494 21.5624 15.1897 21.6373 14.8828 21.6234C14.6502 21.6441 14.4162 21.6064 14.2017 21.514C13.9873 21.4215 13.7993 21.2771 13.6547 21.0938C13.5257 20.9009 13.4483 20.6782 13.4297 20.4469Z" fill="white"/>
</svg>
