<svg width="16" height="14" viewBox="0 0 16 14" fill="none" xmlns="http://www.w3.org/2000/svg">
<path d="M7.99902 0.25C8.68594 0.25 9.32338 0.617535 9.68164 1.22266L15.2363 10.7275C15.5855 11.3475 15.588 12.1115 15.2422 12.7334C14.8963 13.3552 14.2543 13.742 13.5488 13.75H2.44336C1.74511 13.7421 1.10273 13.3552 0.756836 12.7334C0.411039 12.1115 0.41306 11.3478 0.767578 10.7188L6.31738 1.22266C6.67559 0.617705 7.31229 0.250133 7.99902 0.25ZM7.99902 1.59277C7.77066 1.59289 7.55836 1.7152 7.43945 1.91504L1.89746 11.3994C1.78108 11.6059 1.78038 11.8602 1.89551 12.0674C2.01078 12.2747 2.22464 12.4046 2.4502 12.4072H13.541C13.7738 12.4046 13.9882 12.2747 14.1035 12.0674C14.2186 11.8602 14.2174 11.6064 14.1064 11.4092L8.55957 1.91602C8.4408 1.71542 8.22799 1.59277 7.99902 1.59277ZM8 9.35352C8.41398 9.35365 8.74978 9.69776 8.75 10.1221C8.75 10.5466 8.41411 10.8915 8 10.8916C7.58578 10.8916 7.25 10.5466 7.25 10.1221C7.25022 9.69768 7.58591 9.35352 8 9.35352ZM8 4C8.41405 4.00013 8.7499 4.34415 8.75 4.76855V7.84375C8.75 8.26825 8.41411 8.61217 8 8.6123C7.58578 8.6123 7.25 8.26833 7.25 7.84375V4.76855C7.2501 4.34407 7.58584 4 8 4Z" fill="#D12F23"/>
</svg>
