<svg width="24" height="24" viewBox="0 0 24 24" fill="none" xmlns="http://www.w3.org/2000/svg">
<circle cx="12" cy="12" r="8" fill="#424752"/>
<path fill-rule="evenodd" clip-rule="evenodd" d="M15.4851 8.51405C15.2846 8.31351 14.9595 8.31351 14.759 8.51405L11.9999 11.2736L9.24036 8.51405C9.03983 8.31351 8.71472 8.31352 8.51418 8.51405C8.31363 8.71458 8.31363 9.03969 8.51418 9.24023L11.2737 11.9998L8.51417 14.7598C8.31363 14.9603 8.31364 15.2854 8.51417 15.486C8.7147 15.6865 9.03981 15.6865 9.24035 15.486L11.9999 12.726L14.7541 15.4801C14.9546 15.6807 15.2797 15.6806 15.4802 15.4801C15.6808 15.2796 15.6808 14.9545 15.4802 14.7539L12.7261 11.9997L15.4851 9.24024C15.6857 9.03971 15.6857 8.7146 15.4851 8.51405Z" fill="white"/>
</svg>
