<svg width="22" height="22" viewBox="0 0 22 22" fill="none" xmlns="http://www.w3.org/2000/svg">
<path d="M4.11669 14.6228H3.33728C2.71739 14.6228 2.1229 14.3766 1.68457 13.9383C1.24625 13.4999 1 12.9055 1 12.2856V3.33752C1 2.71764 1.24625 2.12314 1.68457 1.68482C2.1229 1.24649 2.71739 1.00024 3.33728 1.00024H12.2853C12.9051 1.00024 13.4996 1.24649 13.938 1.68482C14.3763 2.12314 14.6225 2.71764 14.6225 3.33752V4.11693" stroke="#424752" stroke-width="2" stroke-linecap="round" stroke-linejoin="round"/>
<path d="M18.6628 7.37708H9.71472C8.42388 7.37708 7.37744 8.42351 7.37744 9.71435V18.6624C7.37744 19.9532 8.42388 20.9997 9.71472 20.9997H18.6628C19.9536 20.9997 21 19.9532 21 18.6624V9.71435C21 8.42351 19.9536 7.37708 18.6628 7.37708Z" stroke="#424752" stroke-width="2" stroke-linejoin="round"/>
</svg>
