<svg width="18" height="18" viewBox="0 0 18 18" fill="none" xmlns="http://www.w3.org/2000/svg">
<path d="M3.49335 11.8984H2.86982C2.37392 11.8984 1.89832 11.7014 1.54766 11.3507C1.197 11.0001 1 10.5245 1 10.0286V2.87013C1 2.37422 1.197 1.89862 1.54766 1.54796C1.89832 1.1973 2.37392 1.00031 2.86982 1.00031H10.0282C10.5241 1.00031 10.9997 1.1973 11.3504 1.54796C11.701 1.89862 11.898 2.37422 11.898 2.87013V3.49365" stroke="white" stroke-width="1.4" stroke-linecap="round" stroke-linejoin="round"/>
<path d="M15.1303 6.10168H7.97187C6.9392 6.10168 6.10205 6.93883 6.10205 7.97151V15.1299C6.10205 16.1626 6.9392 16.9998 7.97187 16.9998H15.1303C16.163 16.9998 17.0001 16.1626 17.0001 15.1299V7.97151C17.0001 6.93883 16.163 6.10168 15.1303 6.10168Z" stroke="white" stroke-width="1.4" stroke-linejoin="round"/>
</svg>
