<svg width="30" height="30" viewBox="0 0 30 30" fill="none" xmlns="http://www.w3.org/2000/svg">
<rect width="30" height="30" fill="#F5F5F5"/>
<g id="Final Components">
<path d="M-7253 -1414C-7253 -1415.1 -7252.1 -1416 -7251 -1416H7734C7735.1 -1416 7736 -1415.1 7736 -1414V2497C7736 2498.1 7735.1 2499 7734 2499H-7251C-7252.1 2499 -7253 2498.1 -7253 2497V-1414Z" fill="white"/>
<path d="M-7251 -1415H7734V-1417H-7251V-1415ZM7735 -1414V2497H7737V-1414H7735ZM7734 2498H-7251V2500H7734V2498ZM-7252 2497V-1414H-7254V2497H-7252ZM-7251 2498C-7251.55 2498 -7252 2497.55 -7252 2497H-7254C-7254 2498.66 -7252.66 2500 -7251 2500V2498ZM7735 2497C7735 2497.55 7734.55 2498 7734 2498V2500C7735.66 2500 7737 2498.66 7737 2497H7735ZM7734 -1415C7734.55 -1415 7735 -1414.55 7735 -1414H7737C7737 -1415.66 7735.66 -1417 7734 -1417V-1415ZM-7251 -1417C-7252.66 -1417 -7254 -1415.66 -7254 -1414H-7252C-7252 -1414.55 -7251.55 -1415 -7251 -1415V-1417Z" fill="black" fill-opacity="0.1"/>
<g id="Document States">
<rect x="-19.5" y="-105.5" width="89" height="433" rx="4.5" stroke="#9747FF" stroke-dasharray="10 5"/>
<g id="Type=Doc">
<path id="Vector" d="M25.7812 8.4375H19.6875V2.34375C19.6875 2.21943 19.6381 2.1002 19.5502 2.01229C19.4623 1.92439 19.3431 1.875 19.2188 1.875H6.09375C5.96943 1.875 5.8502 1.92439 5.76229 2.01229C5.67439 2.1002 5.625 2.21943 5.625 2.34375V15.4688C5.625 15.5931 5.67439 15.7123 5.76229 15.8002C5.8502 15.8881 5.96943 15.9375 6.09375 15.9375H18.75V23.4375H6.09375C5.96943 23.4375 5.8502 23.4869 5.76229 23.5748C5.67439 23.6627 5.625 23.7819 5.625 23.9062V27.6562C5.625 27.7806 5.67439 27.8998 5.76229 27.9877C5.8502 28.0756 5.96943 28.125 6.09375 28.125H25.7812C25.9056 28.125 26.0248 28.0756 26.1127 27.9877C26.2006 27.8998 26.25 27.7806 26.25 27.6562V8.90625C26.25 8.78193 26.2006 8.6627 26.1127 8.57479C26.0248 8.48689 25.9056 8.4375 25.7812 8.4375Z" fill="#EEEEEE"/>
<path id="Vector_2" d="M19.2188 15H4.21875C3.95987 15 3.75 15.2099 3.75 15.4688V23.9062C3.75 24.1651 3.95987 24.375 4.21875 24.375H19.2188C19.4776 24.375 19.6875 24.1651 19.6875 23.9062V15.4688C19.6875 15.2099 19.4776 15 19.2188 15Z" fill="#42A5F5"/>
<path id="Vector_3" d="M26.1141 8.57348L19.5516 2.01098C19.486 1.94487 19.4022 1.89979 19.311 1.88147C19.2197 1.86316 19.125 1.87244 19.039 1.90815C18.953 1.94385 18.8796 2.00435 18.8281 2.08194C18.7767 2.15953 18.7495 2.25069 18.75 2.34379V8.90629C18.75 9.03061 18.7994 9.14984 18.8873 9.23775C18.9752 9.32565 19.0944 9.37504 19.2188 9.37504H25.7813C25.8744 9.37558 25.9655 9.34838 26.0431 9.29691C26.1207 9.24545 26.1812 9.17204 26.2169 9.08605C26.2526 9.00006 26.2619 8.90538 26.2436 8.8141C26.2253 8.72281 26.1802 8.63904 26.1141 8.57348Z" fill="#E0E0E0"/>
<path id="Vector_4" d="M6.09375 21.5624V17.8124H7.5C7.85248 17.8 8.19794 17.9129 8.475 18.1312C8.70191 18.3193 8.88128 18.5582 8.99856 18.8286C9.11584 19.099 9.16772 19.3932 9.15 19.6874C9.15115 20.0321 9.06744 20.3718 8.90625 20.6765C8.75843 20.9622 8.53033 21.1984 8.25 21.3562C7.92892 21.5101 7.57434 21.5811 7.21875 21.5624H6.09375ZM6.88594 20.8499H7.39219C7.57224 20.8565 7.75015 20.8092 7.90313 20.714C8.06532 20.5922 8.19359 20.4309 8.27565 20.2455C8.35772 20.06 8.39085 19.8566 8.37188 19.6546C8.38784 19.4648 8.35536 19.2741 8.27747 19.1003C8.19958 18.9265 8.07884 18.7753 7.92656 18.6609C7.77563 18.565 7.59898 18.5176 7.42031 18.5249H6.86719L6.88594 20.8499ZM11.3953 17.7421C11.6481 17.7379 11.8989 17.7861 12.1321 17.8837C12.3653 17.9813 12.5757 18.1263 12.75 18.3093C13.109 18.6763 13.3101 19.1693 13.3101 19.6828C13.3101 20.1962 13.109 20.6892 12.75 21.0562C12.5751 21.2377 12.3654 21.382 12.1334 21.4806C11.9015 21.5792 11.652 21.63 11.4 21.63C11.148 21.63 10.8985 21.5792 10.6666 21.4806C10.4346 21.382 10.2249 21.2377 10.05 21.0562C9.78157 20.7801 9.60024 20.4311 9.52856 20.0527C9.45689 19.6744 9.49803 19.2833 9.64688 18.9281C9.78537 18.5776 10.0263 18.277 10.3382 18.0654C10.6501 17.8539 11.0184 17.7412 11.3953 17.7421ZM11.3953 18.539C11.2511 18.5379 11.1082 18.5669 10.9758 18.6242C10.8434 18.6816 10.7245 18.7659 10.6266 18.8718C10.5211 18.979 10.4388 19.1067 10.3848 19.247C10.3308 19.3873 10.3062 19.5372 10.3125 19.6874C10.3093 19.8395 10.3363 19.9907 10.3918 20.1323C10.4473 20.2738 10.5303 20.4031 10.6359 20.5124C10.7363 20.6187 10.8573 20.7034 10.9915 20.7612C11.1257 20.8191 11.2703 20.8489 11.4164 20.8489C11.5626 20.8489 11.7072 20.8191 11.8414 20.7612C11.9756 20.7034 12.0965 20.6187 12.1969 20.5124C12.3002 20.4074 12.3816 20.2828 12.4363 20.146C12.491 20.0092 12.518 19.8629 12.5156 19.7156C12.5183 19.5639 12.4907 19.4132 12.4343 19.2723C12.378 19.1314 12.2941 19.0032 12.1875 18.8953C12.0876 18.7831 11.9647 18.6936 11.8272 18.633C11.6898 18.5723 11.5409 18.5419 11.3906 18.5437L11.3953 18.539ZM16.2281 20.3062H17.0719C17.0424 20.5643 16.9454 20.8101 16.7906 21.0187C16.6364 21.2126 16.4367 21.3655 16.2094 21.464C15.9726 21.5724 15.7151 21.6283 15.4547 21.6281C15.2148 21.636 14.9761 21.5924 14.7545 21.5002C14.533 21.4081 14.3337 21.2694 14.1703 21.0937C13.8228 20.71 13.6409 20.2046 13.6641 19.6874C13.6433 19.1723 13.8212 18.6689 14.1609 18.2812C14.3179 18.1024 14.5121 17.9602 14.73 17.8646C14.9479 17.7691 15.184 17.7224 15.4219 17.7281C15.6626 17.7213 15.9019 17.7673 16.123 17.8628C16.3441 17.9584 16.5416 18.1012 16.7016 18.2812C16.9014 18.5151 17.0299 18.8014 17.0719 19.1062H16.2281C16.1865 18.9408 16.0888 18.795 15.9516 18.6937C15.7985 18.5938 15.6186 18.5431 15.4359 18.5484C15.3029 18.5447 15.1708 18.5715 15.0497 18.6267C14.9287 18.682 14.8219 18.7642 14.7375 18.8671C14.5537 19.1001 14.4589 19.3909 14.4703 19.6874C14.4577 19.9849 14.5544 20.2767 14.7422 20.5078C14.828 20.6099 14.9358 20.6913 15.0576 20.7457C15.1794 20.8001 15.312 20.8261 15.4453 20.8218C15.6141 20.8326 15.7818 20.7882 15.9231 20.6951C16.0643 20.6021 16.1714 20.4655 16.2281 20.3062Z" fill="white"/>
</g>
</g>
</g>
</svg>
