<svg width="18" height="10" viewBox="0 0 18 10" fill="none" xmlns="http://www.w3.org/2000/svg">
<path fill-rule="evenodd" clip-rule="evenodd" d="M5.11743 7.94644L12.2652 0.523727C12.5364 0.242091 12.9761 0.242091 13.2473 0.523727C13.5185 0.805362 13.5185 1.26194 13.2473 1.54356L5.60838 9.47627C5.33717 9.75791 4.8975 9.75791 4.62632 9.47627L1.15409 5.87049C0.882882 5.58886 0.882882 5.13228 1.15409 4.85066C1.42529 4.56905 1.86496 4.56903 2.13614 4.85066L5.11743 7.94644Z" fill="#424752"/>
<path fill-rule="evenodd" clip-rule="evenodd" d="M9.6668 7.94644L16.8146 0.523727C17.0858 0.242091 17.5255 0.242091 17.7967 0.523727C18.0678 0.805362 18.0679 1.26194 17.7967 1.54356L10.1577 9.47627C9.88654 9.75791 9.44687 9.75791 9.17568 9.47627L7.13947 7.3125C6.86826 7.03086 6.89879 6.59412 7.16999 6.3125C7.4412 6.03088 7.6795 6.03086 7.95068 6.3125L9.6668 7.94644Z" fill="#424752"/>
</svg>
