<svg width="16" height="16" viewBox="0 0 16 16" fill="none" xmlns="http://www.w3.org/2000/svg">
<path d="M6.78515 11.8186C6.6644 11.6979 6.65441 11.5054 6.76202 11.3729L7.28985 10.7226C7.41446 10.569 7.64455 10.5571 7.78436 10.6969L7.87749 10.79C8.01732 10.9299 8.24745 10.9179 8.37204 10.7643L14.5714 3.12333C14.6873 2.98037 14.8973 2.9585 15.0402 3.07449L15.6873 3.59948C15.8303 3.71549 15.8521 3.92544 15.7361 4.0684L8.48679 12.9999C8.36219 13.1534 8.13212 13.1654 7.9923 13.0256L6.78515 11.8186Z" fill="#34A0FF"/>
<path d="M0.569332 9.93637L3.65909 13.0256C3.79891 13.1654 4.02898 13.1534 4.15358 12.9999L11.4029 4.0684C11.5189 3.92544 11.4971 3.71549 11.3541 3.59948L10.707 3.07449C10.5641 2.9585 10.3541 2.98037 10.2381 3.12333L4.03883 10.7643C3.91424 10.9179 3.68411 10.9299 3.54428 10.79L1.62995 8.87571C1.49978 8.74554 1.28872 8.74554 1.15855 8.87571L0.569311 9.46495C0.439128 9.59513 0.439137 9.8062 0.569332 9.93637Z" fill="#34A0FF"/>
</svg>
