<svg width="20" height="18" viewBox="0 0 20 18" fill="none" xmlns="http://www.w3.org/2000/svg">
<path id="download" fill-rule="evenodd" clip-rule="evenodd" d="M11.4886 10.8841C10.6886 11.5837 9.48859 11.5837 8.78859 10.8841L5.28859 7.49593C4.88859 7.09615 4.88859 6.39653 5.28859 5.99675C5.68859 5.59696 6.38859 5.59696 6.78859 5.99675L8.98859 8.19555V1.0994C8.98859 0.499729 9.48859 0 10.0886 0C10.6886 0 11.1886 0.499729 11.1886 1.0994V8.18556L13.3886 5.99675C13.7886 5.59696 14.4886 5.59696 14.8886 5.99675C15.2886 6.39653 15.2886 7.09615 14.8886 7.49593L11.4886 10.8841ZM17.8886 10.5142C17.8886 9.91454 18.3886 9.41481 18.9886 9.41481C19.5886 9.41481 20.0886 9.8146 19.9886 10.5142V16.1012C19.9886 17.2006 19.0886 18.0002 18.0886 18.0002H1.8986C0.798596 18.0002 -0.00140381 17.1006 -0.00140381 16.1012V10.5142C-0.00140381 9.91454 0.498596 9.41481 1.0986 9.41481C1.6986 9.41481 2.1986 9.91454 2.1986 10.5142V15.9013H17.8886V10.5142Z" fill="white"/>
</svg>
