<svg width="24" height="24" viewBox="0 0 24 24" fill="none" xmlns="http://www.w3.org/2000/svg">
<path fill-rule="evenodd" clip-rule="evenodd" d="M13.4885 13.8841C12.6885 14.5837 11.4885 14.5837 10.7885 13.8841L7.28853 10.4959C6.88853 10.0962 6.88853 9.39653 7.28853 8.99675C7.68853 8.59696 8.38853 8.59696 8.78853 8.99675L10.9885 11.1956V4.0994C10.9885 3.49973 11.4885 3 12.0885 3C12.6885 3 13.1885 3.49973 13.1885 4.0994V11.1856L15.3885 8.99675C15.7885 8.59696 16.4885 8.59696 16.8885 8.99675C17.2885 9.39653 17.2885 10.0962 16.8885 10.4959L13.4885 13.8841ZM19.8885 13.5142C19.8885 12.9145 20.3885 12.4148 20.9885 12.4148C21.5885 12.4148 22.0885 12.8146 21.9885 13.5142V19.1012C21.9885 20.2006 21.0885 21.0002 20.0885 21.0002H3.89854C2.79854 21.0002 1.99854 20.1006 1.99854 19.1012V13.5142C1.99854 12.9145 2.49854 12.4148 3.09854 12.4148C3.69854 12.4148 4.19854 12.9145 4.19854 13.5142V18.9013H19.8885V13.5142Z" fill="#424752"/>
</svg>
