<svg width="20" height="20" viewBox="0 0 20 20" fill="none" xmlns="http://www.w3.org/2000/svg">
<path d="M16.1403 2.57504L9.44147 9.27409L9.44146 9.27408L9.44033 9.27526C9.27611 9.44679 9.1856 9.67581 9.18818 9.91326C9.19076 10.1507 9.28622 10.3777 9.45411 10.5456C9.62201 10.7136 9.84899 10.8091 10.0864 10.8117C10.3239 10.8143 10.5529 10.7238 10.7245 10.5596L10.7257 10.5585L17.4249 3.85944V6.66671C17.4249 6.90761 17.5206 7.13865 17.691 7.309C17.8613 7.47934 18.0923 7.57504 18.3333 7.57504C18.5742 7.57504 18.8052 7.47934 18.9755 7.309C19.1459 7.13865 19.2416 6.90761 19.2416 6.66671V1.66671C19.2416 1.4258 19.1459 1.19476 18.9755 1.02442C18.8052 0.854073 18.5742 0.758374 18.3333 0.758374H13.3333C13.0923 0.758374 12.8613 0.854073 12.691 1.02442C12.5206 1.19476 12.4249 1.4258 12.4249 1.66671C12.4249 1.90761 12.5206 2.13865 12.691 2.309C12.8613 2.47934 13.0923 2.57504 13.3333 2.57504H16.1403ZM18.3333 9.92504C18.0923 9.92504 17.8613 10.0207 17.691 10.1911C17.5206 10.3614 17.4249 10.5925 17.4249 10.8334V16.6667C17.4249 17.0857 17.0856 17.425 16.6666 17.425H3.33325C2.91426 17.425 2.57492 17.0857 2.57492 16.6667V3.33337C2.57492 2.91438 2.91426 2.57504 3.33325 2.57504H9.16659C9.40749 2.57504 9.63853 2.47934 9.80887 2.309C9.97922 2.13865 10.0749 1.90761 10.0749 1.66671C10.0749 1.4258 9.97922 1.19476 9.80887 1.02442C9.63853 0.854073 9.40749 0.758374 9.16659 0.758374H3.33325C1.91121 0.758374 0.758252 1.91133 0.758252 3.33337V16.6667C0.758252 18.0888 1.91121 19.2417 3.33325 19.2417H16.6666C18.0886 19.2417 19.2416 18.0888 19.2416 16.6667V10.8334C19.2416 10.5925 19.1459 10.3614 18.9755 10.1911C18.8052 10.0207 18.5742 9.92504 18.3333 9.92504Z" fill="#424752" stroke="#505662" stroke-width="0.15"/>
</svg>
