<svg width="30" height="30" viewBox="0 0 30 30" fill="none" xmlns="http://www.w3.org/2000/svg">
<path d="M25.7812 8.4375H19.6875V2.34375C19.6875 2.21943 19.6381 2.1002 19.5502 2.01229C19.4623 1.92439 19.3431 1.875 19.2188 1.875H6.09375C5.96943 1.875 5.8502 1.92439 5.76229 2.01229C5.67439 2.1002 5.625 2.21943 5.625 2.34375V15.4688C5.625 15.5931 5.67439 15.7123 5.76229 15.8002C5.8502 15.8881 5.96943 15.9375 6.09375 15.9375H18.75V23.4375H6.09375C5.96943 23.4375 5.8502 23.4869 5.76229 23.5748C5.67439 23.6627 5.625 23.7819 5.625 23.9062V27.6562C5.625 27.7806 5.67439 27.8998 5.76229 27.9877C5.8502 28.0756 5.96943 28.125 6.09375 28.125H25.7812C25.9056 28.125 26.0248 28.0756 26.1127 27.9877C26.2006 27.8998 26.25 27.7806 26.25 27.6562V8.90625C26.25 8.78193 26.2006 8.6627 26.1127 8.57479C26.0248 8.48689 25.9056 8.4375 25.7812 8.4375Z" fill="#EEEEEE"/>
<path d="M19.2188 15H4.21875C3.95987 15 3.75 15.2099 3.75 15.4688V23.9062C3.75 24.1651 3.95987 24.375 4.21875 24.375H19.2188C19.4776 24.375 19.6875 24.1651 19.6875 23.9062V15.4688C19.6875 15.2099 19.4776 15 19.2188 15Z" fill="#EF5350"/>
<path d="M26.1141 8.57348L19.5516 2.01098C19.486 1.94487 19.4022 1.89979 19.311 1.88147C19.2197 1.86316 19.125 1.87244 19.039 1.90815C18.953 1.94385 18.8796 2.00435 18.8281 2.08194C18.7767 2.15953 18.7495 2.25069 18.75 2.34379V8.90629C18.75 9.03061 18.7994 9.14984 18.8873 9.23775C18.9752 9.32565 19.0944 9.37504 19.2188 9.37504H25.7813C25.8744 9.37558 25.9655 9.34838 26.0431 9.29691C26.1207 9.24545 26.1812 9.17204 26.2169 9.08605C26.2526 9.00006 26.2619 8.90538 26.2436 8.8141C26.2253 8.72281 26.1802 8.63904 26.1141 8.57348Z" fill="#E0E0E0"/>
<path d="M7.5 21.5625V17.8125H8.74687C9.067 17.7912 9.38383 17.8879 9.6375 18.0843C9.76554 18.1957 9.86696 18.3344 9.93429 18.4901C10.0016 18.6459 10.0332 18.8148 10.0266 18.9843C10.0235 19.2034 9.96025 19.4175 9.84375 19.6031C9.73412 19.7859 9.57029 19.9301 9.375 20.0156C9.20552 20.091 9.02139 20.1279 8.83594 20.1234H8.27344V21.5625H7.5ZM8.29219 19.4437H8.73281C8.8717 19.4515 9.00808 19.4044 9.1125 19.3125C9.15886 19.2659 9.19491 19.2102 9.21833 19.1488C9.24175 19.0874 9.252 19.0218 9.24844 18.9562C9.24844 18.6687 9.07656 18.525 8.73281 18.525H8.29219V19.4437ZM10.5844 21.5625V17.8125H11.8312C12.1514 17.7912 12.4682 17.8879 12.7219 18.0843C12.8518 18.1938 12.9555 18.3311 13.0253 18.4861C13.0951 18.6411 13.1292 18.8097 13.125 18.9796C13.1287 19.1986 13.0719 19.4143 12.9609 19.6031C12.8513 19.7859 12.6875 19.9301 12.4922 20.0156C12.3228 20.0912 12.1386 20.128 11.9531 20.1234H11.3766V21.5625H10.5844ZM11.3766 19.4437H11.8172C11.9528 19.4486 12.0852 19.4016 12.1875 19.3125C12.2339 19.2659 12.2699 19.2102 12.2933 19.1488C12.3167 19.0874 12.327 19.0218 12.3234 18.9562C12.3234 18.6687 12.1516 18.525 11.8078 18.525H11.3672L11.3766 19.4437ZM14.3391 21.5625V18.525H13.4719V17.8125H15.9703V18.525H15.1312V21.5625H14.3391Z" fill="white"/>
</svg>
