<svg width="41" height="41" viewBox="0 0 41 41" fill="none" xmlns="http://www.w3.org/2000/svg">
<path d="M0 20.4982C0 9.17641 9.17816 -0.00354004 20.5 -0.00354004C31.8218 -0.00354004 41 9.17641 41 20.4982C41 31.8201 31.8218 41 20.5 41C9.17816 41 0 31.8201 0 20.4982Z" fill="#97144D"/>
<path d="M30.3065 19.3871L15.3547 12.0935C15.211 12.0235 15.0519 11.9912 14.8922 11.9996C14.7326 12.0081 14.5778 12.057 14.4423 12.1417C14.3068 12.2265 14.1951 12.3444 14.1177 12.4842C14.0404 12.6241 13.9998 12.7813 14 12.9411V12.9682C14.0001 13.0945 14.0156 13.2204 14.0464 13.343L15.4806 19.0796C15.4999 19.156 15.542 19.2247 15.6014 19.2765C15.6608 19.3283 15.7346 19.3607 15.8129 19.3694L22.1165 20.0702C22.2214 20.0828 22.318 20.1334 22.3881 20.2124C22.4582 20.2915 22.4969 20.3934 22.4969 20.4991C22.4969 20.6047 22.4582 20.7067 22.3881 20.7857C22.318 20.8647 22.2214 20.9153 22.1165 20.9279L15.8129 21.6288C15.7346 21.6374 15.6608 21.6698 15.6014 21.7216C15.542 21.7734 15.4999 21.8421 15.4806 21.9185L14.0464 27.6544C14.0156 27.777 14.0001 27.9028 14 28.0292V28.0562C14 28.216 14.0406 28.3731 14.118 28.5128C14.1955 28.6526 14.3072 28.7703 14.4426 28.855C14.5781 28.9397 14.7329 28.9886 14.8924 28.997C15.052 29.0054 15.2111 28.9731 15.3547 28.9031L30.3057 21.6095C30.5139 21.5079 30.6894 21.3499 30.8122 21.1534C30.9349 20.9569 31 20.7299 31 20.4983C31 20.2666 30.9349 20.0396 30.8122 19.8432C30.6894 19.6467 30.5147 19.4887 30.3065 19.3871Z" fill="white"/>
</svg>
