<svg width="17" height="18" viewBox="0 0 17 18" fill="none" xmlns="http://www.w3.org/2000/svg">
<path d="M16.3065 7.88884L1.35469 0.595189C1.211 0.525176 1.05186 0.492872 0.892249 0.501316C0.732635 0.50976 0.577794 0.558675 0.4423 0.643458C0.306806 0.728241 0.195115 0.846102 0.117738 0.98595C0.0403618 1.1258 -0.000155299 1.28303 4.47319e-07 1.44286V1.4699C7.69761e-05 1.59625 0.0156488 1.72211 0.0463673 1.84467L1.48065 7.5813C1.49988 7.65772 1.54201 7.72643 1.60141 7.77822C1.6608 7.83002 1.73461 7.86241 1.81295 7.87106L8.11652 8.57192C8.2214 8.58453 8.31803 8.63513 8.38812 8.71416C8.45821 8.79318 8.49692 8.89515 8.49692 9.00077C8.49692 9.1064 8.45821 9.20837 8.38812 9.28739C8.31803 9.36641 8.2214 9.41702 8.11652 9.42963L1.81295 10.1305C1.73461 10.1391 1.6608 10.1715 1.60141 10.2233C1.54201 10.2751 1.49988 10.3438 1.48065 10.4202L0.0463673 16.1561C0.0156488 16.2787 7.69761e-05 16.4045 4.47319e-07 16.5309V16.5579C-2.41309e-05 16.7177 0.0405886 16.8748 0.118019 17.0146C0.19545 17.1543 0.307155 17.2721 0.442628 17.3567C0.578101 17.4414 0.732892 17.4903 0.892442 17.4987C1.05199 17.5071 1.21106 17.4748 1.35469 17.4048L16.3057 10.1112C16.5139 10.0096 16.6894 9.85157 16.8122 9.65511C16.9349 9.45865 17 9.23165 17 9C17 8.76834 16.9349 8.54135 16.8122 8.34489C16.6894 8.14843 16.5147 7.99041 16.3065 7.88884Z" fill="white"/>
</svg>
