<svg width="17" height="17" viewBox="0 0 17 17" fill="none" xmlns="http://www.w3.org/2000/svg">
<path d="M16.3065 7.38884L1.35469 0.0951891C1.211 0.0251762 1.05186 -0.00712843 0.892249 0.0013158C0.732635 0.00976004 0.577794 0.0586754 0.4423 0.143458C0.306806 0.228241 0.195115 0.346102 0.117738 0.48595C0.0403618 0.625798 -0.000155299 0.783033 4.47319e-07 0.942856V0.969902C7.69761e-05 1.09625 0.0156488 1.22211 0.0463673 1.34467L1.48065 7.0813C1.49988 7.15772 1.54201 7.22643 1.60141 7.27822C1.6608 7.33002 1.73461 7.36241 1.81295 7.37106L8.11652 8.07192C8.2214 8.08453 8.31803 8.13513 8.38812 8.21416C8.45821 8.29318 8.49692 8.39515 8.49692 8.50077C8.49692 8.6064 8.45821 8.70837 8.38812 8.78739C8.31803 8.86641 8.2214 8.91702 8.11652 8.92963L1.81295 9.63048C1.73461 9.63913 1.6608 9.67153 1.60141 9.72332C1.54201 9.77511 1.49988 9.84383 1.48065 9.92025L0.0463673 15.6561C0.0156488 15.7787 7.69761e-05 15.9045 4.47319e-07 16.0309V16.0579C-2.41309e-05 16.2177 0.0405886 16.3748 0.118019 16.5146C0.19545 16.6543 0.307155 16.7721 0.442628 16.8567C0.578101 16.9414 0.732892 16.9903 0.892442 16.9987C1.05199 17.0071 1.21106 16.9748 1.35469 16.9048L16.3057 9.61116C16.5139 9.50959 16.6894 9.35157 16.8122 9.15511C16.9349 8.95865 17 8.73165 17 8.5C17 8.26834 16.9349 8.04135 16.8122 7.84489C16.6894 7.64843 16.5147 7.49041 16.3065 7.38884Z" fill="#B9BBC0"/>
</svg>
