<svg width="41" height="41" viewBox="0 0 41 41" fill="none" xmlns="http://www.w3.org/2000/svg">
<path d="M0 20.5C0 9.17812 9.17816 -0.00183105 20.5 -0.00183105C31.8218 -0.00183105 41 9.17812 41 20.5C41 31.8218 31.8218 41.0017 20.5 41.0017C9.17816 41.0017 0 31.8218 0 20.5Z" fill="#EEEEEF"/>
<path d="M30.3065 19.3888L15.3547 12.0952C15.211 12.0252 15.0519 11.9929 14.8922 12.0013C14.7326 12.0098 14.5778 12.0587 14.4423 12.1435C14.3068 12.2282 14.1951 12.3461 14.1177 12.486C14.0404 12.6258 13.9998 12.783 14 12.9429V12.9699C14.0001 13.0962 14.0156 13.2221 14.0464 13.3447L15.4806 19.0813C15.4999 19.1577 15.542 19.2264 15.6014 19.2782C15.6608 19.33 15.7346 19.3624 15.8129 19.3711L22.1165 20.0719C22.2214 20.0845 22.318 20.1351 22.3881 20.2142C22.4582 20.2932 22.4969 20.3951 22.4969 20.5008C22.4969 20.6064 22.4582 20.7084 22.3881 20.7874C22.318 20.8664 22.2214 20.917 22.1165 20.9296L15.8129 21.6305C15.7346 21.6391 15.6608 21.6715 15.6014 21.7233C15.542 21.7751 15.4999 21.8438 15.4806 21.9202L14.0464 27.6561C14.0156 27.7787 14.0001 27.9045 14 28.0309V28.0579C14 28.2177 14.0406 28.3748 14.118 28.5146C14.1955 28.6543 14.3072 28.7721 14.4426 28.8567C14.5781 28.9414 14.7329 28.9903 14.8924 28.9987C15.052 29.0071 15.2111 28.9748 15.3547 28.9048L30.3057 21.6112C30.5139 21.5096 30.6894 21.3516 30.8122 21.1551C30.9349 20.9586 31 20.7317 31 20.5C31 20.2683 30.9349 20.0414 30.8122 19.8449C30.6894 19.6484 30.5147 19.4904 30.3065 19.3888Z" fill="#B9BBC0"/>
</svg>
