<svg width="21" height="20" viewBox="0 0 21 20" fill="none" xmlns="http://www.w3.org/2000/svg">
<path fill-rule="evenodd" clip-rule="evenodd" d="M17.5058 14.4878C17.6424 14.478 17.7692 14.478 17.896 14.5171H17.8863C18.0131 14.5561 18.1302 14.6146 18.2375 14.6927C18.4521 14.8488 18.579 15.0829 18.618 15.3463C18.657 15.6098 18.5887 15.8634 18.4229 16.078C17.3985 17.4244 16.0229 18.4976 14.4716 19.1707C13.2131 19.7171 11.857 20 10.4912 20C10.1595 20 9.8375 19.9805 9.51555 19.9512C7.82775 19.7854 6.19848 19.1902 4.80336 18.2244C3.40823 17.2683 2.27653 15.9512 1.52531 14.4293C0.783843 12.9073 0.432624 11.2098 0.510673 9.5122C0.598477 7.82439 1.11555 6.16585 2.00336 4.72195C2.89116 3.27805 4.1497 2.07805 5.63262 1.25854C7.10579 0.439024 8.78384 0 10.4814 0C10.7448 0 10.9985 0.107317 11.1838 0.292683C11.3692 0.478049 11.4765 0.731707 11.4765 0.995122C11.4765 1.25854 11.3692 1.5122 11.1838 1.69756C10.9985 1.88293 10.7448 1.99024 10.4814 1.99024C9.11555 1.99024 7.76921 2.34146 6.58872 2.99512C5.40823 3.64878 4.40336 4.61463 3.6814 5.76585C2.95945 6.91707 2.5497 8.2439 2.4814 9.6C2.41311 10.9659 2.69604 12.322 3.30092 13.5415C3.89604 14.761 4.81311 15.8146 5.92531 16.5854C7.04726 17.3561 8.35458 17.8341 9.70092 17.9707C11.057 18.1073 12.4229 17.8829 13.6716 17.3463C14.9204 16.8 16.0131 15.9415 16.8424 14.8683C16.9204 14.7707 17.018 14.6829 17.1351 14.6146C17.2521 14.5463 17.379 14.5073 17.5058 14.4878ZM12.4814 2.04882C12.579 2.17565 12.7058 2.28296 12.8521 2.35126C12.979 2.40979 13.1253 2.43906 13.2717 2.43906H13.3204C13.5058 2.43906 13.6814 2.37077 13.8278 2.27321C13.9741 2.17565 14.1009 2.0293 14.1692 1.86345C14.2473 1.6976 14.2765 1.52199 14.257 1.33662C14.2375 1.15126 14.1692 0.985402 14.0619 0.83906C13.9546 0.692719 13.8082 0.585402 13.6326 0.517109C13.4668 0.448817 13.2814 0.43906 13.1058 0.458573C12.9302 0.487841 12.7643 0.56589 12.618 0.682963C12.4814 0.800036 12.3839 0.956134 12.3253 1.12199C12.2765 1.27808 12.2668 1.43418 12.2863 1.60004C12.3156 1.75613 12.3741 1.91223 12.4814 2.03906V2.04882ZM15.8374 3.74618C15.652 3.74618 15.4764 3.6974 15.3203 3.59984L15.3301 3.6096C15.1642 3.51204 15.0374 3.37545 14.9593 3.2096C14.8715 3.0535 14.8423 2.86813 14.852 2.68277C14.8618 2.4974 14.9301 2.32179 15.0374 2.17545C15.1349 2.03886 15.2715 1.92179 15.4276 1.8535C15.5837 1.78521 15.7593 1.74618 15.9252 1.76569C16.091 1.77545 16.2569 1.83399 16.3935 1.93155C16.5301 2.01935 16.6471 2.15594 16.7252 2.30228C16.8032 2.44862 16.8325 2.62423 16.8325 2.79008C16.8228 2.95594 16.774 3.12179 16.6862 3.26813C16.5984 3.41447 16.4715 3.5413 16.3252 3.61935C16.1789 3.6974 16.0032 3.74618 15.8374 3.74618ZM11.4861 4.30271C11.4861 4.03929 11.3787 3.78563 11.1934 3.60027C10.8226 3.22954 10.1592 3.22954 9.78849 3.60027C9.60312 3.78563 9.49581 4.03929 9.49581 4.30271V10.0003C9.49581 10.2051 9.5641 10.4003 9.68117 10.5759C9.79825 10.7417 9.9641 10.8686 10.1592 10.9369L14.1592 12.3417C14.2665 12.3808 14.3739 12.4003 14.4812 12.4003H14.5007C14.7348 12.4003 14.9592 12.3222 15.1348 12.1759C15.3202 12.0198 15.4373 11.8149 15.4763 11.5808C15.5153 11.3466 15.4763 11.1027 15.3495 10.8978C15.2324 10.6929 15.0373 10.5369 14.8129 10.4686L11.4763 9.29783V4.30271H11.4861ZM17.8278 5.78567C17.662 5.78567 17.4961 5.73689 17.3498 5.65884H17.34C17.1839 5.57104 17.0571 5.45396 16.9693 5.30762C16.8815 5.16128 16.8229 4.99543 16.8229 4.82957C16.8132 4.66372 16.8522 4.48811 16.9302 4.34177C16.9985 4.19543 17.1156 4.0686 17.262 3.97104C17.4083 3.87348 17.5741 3.81494 17.74 3.80518C17.9156 3.79543 18.0815 3.82469 18.2376 3.89299C18.3937 3.96128 18.5302 4.07835 18.6278 4.21494C18.7059 4.32226 18.7644 4.43933 18.7937 4.56616C18.8229 4.69299 18.8229 4.82957 18.8034 4.9564C18.7839 5.08323 18.7351 5.21006 18.6668 5.31738C18.5985 5.4247 18.5107 5.52226 18.4034 5.6003C18.2278 5.72713 18.0327 5.78567 17.8278 5.78567ZM18.1301 7.40484C18.1203 7.23899 18.1594 7.06338 18.2374 6.91704H18.2277C18.2959 6.77069 18.413 6.64386 18.5594 6.5463C18.7057 6.44874 18.8716 6.39021 19.0374 6.38045C19.213 6.37069 19.3789 6.39996 19.535 6.46826C19.6911 6.53655 19.8277 6.65362 19.9252 6.79021C20.0033 6.89752 20.0618 7.0146 20.0911 7.14143C20.1203 7.26825 20.1203 7.40484 20.1008 7.53167C20.0813 7.6585 20.0325 7.78533 19.9642 7.89265C19.8959 7.99996 19.8081 8.09752 19.7008 8.17557C19.5252 8.3024 19.3301 8.36094 19.1252 8.36094C18.9594 8.36094 18.7935 8.31216 18.6472 8.23411C18.4911 8.1463 18.3642 8.02923 18.2764 7.88289C18.1886 7.73655 18.1301 7.57069 18.1301 7.40484ZM19.3303 12.0198C19.2034 11.971 19.0766 11.9515 18.9498 11.9613C18.8229 11.9613 18.6961 12.0003 18.5693 12.0588C18.4522 12.1174 18.3449 12.1954 18.2571 12.293C18.1693 12.3905 18.101 12.4979 18.062 12.6247C17.9742 12.8784 17.9937 13.1418 18.101 13.3857C18.2181 13.6198 18.4229 13.8052 18.6668 13.893C18.7742 13.932 18.8815 13.9515 18.9985 13.9515C19.1449 13.9515 19.2912 13.9223 19.4278 13.854C19.662 13.7369 19.8473 13.532 19.9351 13.2881C20.0229 13.0345 20.0034 12.771 19.8961 12.5369C19.779 12.3027 19.5742 12.1174 19.3303 12.0296V12.0198ZM18.8034 9.44345C19.1741 9.07271 19.8375 9.07271 20.2082 9.44345C20.3936 9.62881 20.5009 9.88247 20.5009 10.1459C20.5009 10.4093 20.3936 10.663 20.2082 10.8483C20.0229 11.0337 19.7692 11.141 19.5058 11.141C19.2424 11.141 18.9887 11.0337 18.8034 10.8483C18.618 10.663 18.5107 10.4093 18.5107 10.1459C18.5107 9.88247 18.618 9.62881 18.8034 9.44345Z" fill="#424752"/>
</svg>
