<svg width="24" height="24" viewBox="0 0 24 24" fill="none" xmlns="http://www.w3.org/2000/svg">
<path fill-rule="evenodd" clip-rule="evenodd" d="M10.9942 6.22877L8.79565 8.42453V8.41455C8.39591 8.81378 7.69635 8.81378 7.29661 8.41455C6.89686 8.01532 6.89686 7.31667 7.29661 6.91744L10.6944 3.52399C11.4939 2.82534 12.6932 2.82534 13.3927 3.52399L16.8905 6.91744C17.2902 7.31667 17.2902 8.01532 16.8905 8.41455C16.4907 8.81378 15.7912 8.81378 15.3914 8.41455L13.1928 6.21879V13.3151C13.1928 13.9139 12.6932 14.413 12.0935 14.413C11.4939 14.413 10.9942 13.9139 10.9942 13.3151V6.22877ZM19.8885 13.5145C19.8885 12.9156 20.3882 12.4166 20.9878 12.4166C21.5875 12.4166 22.0871 12.8158 21.9872 13.5145V19.1037C21.9872 20.2015 21.0878 21 20.0884 21H3.89878C2.79949 21 2 20.1017 2 19.1037V13.5145C2 12.9156 2.49968 12.4166 3.0993 12.4166C3.69891 12.4166 4.19859 12.9156 4.19859 13.5145V18.904H19.8885V13.5145Z" fill="#424752"/>
</svg>
