<svg width="18" height="12" viewBox="0 0 18 12" fill="none" xmlns="http://www.w3.org/2000/svg">
<path d="M14.6239 3.27597H3.83183L5.29479 1.86922C5.5067 1.66388 5.62575 1.38537 5.62575 1.09497C5.62575 0.804563 5.5067 0.526054 5.29479 0.320708C5.08288 0.115362 4.79547 2.16367e-09 4.49579 0C4.19611 -2.16367e-09 3.9087 0.115362 3.69679 0.320708L0.32074 3.59222C0.218288 3.69593 0.137977 3.81822 0.0844165 3.95208C-0.0281388 4.21758 -0.0281388 4.51537 0.0844165 4.78087C0.137977 4.91473 0.218288 5.03702 0.32074 5.14073L3.69679 8.41224C3.80141 8.51445 3.92587 8.59558 4.06301 8.65095C4.20014 8.70631 4.34723 8.73481 4.49579 8.73481C4.64435 8.73481 4.79144 8.70631 4.92858 8.65095C5.06571 8.59558 5.19017 8.51445 5.29479 8.41224C5.40027 8.31087 5.48399 8.19026 5.54112 8.05737C5.59825 7.92448 5.62767 7.78195 5.62767 7.63799C5.62767 7.49403 5.59825 7.35149 5.54112 7.2186C5.48399 7.08572 5.40027 6.96511 5.29479 6.86373L3.83183 5.45698H14.6239C14.9224 5.45698 15.2086 5.57187 15.4197 5.77638C15.6307 5.98089 15.7493 6.25826 15.7493 6.54748V10.9095C15.7493 11.1987 15.8679 11.4761 16.0789 11.6806C16.2899 11.8851 16.5762 12 16.8746 12C17.1731 12 17.4593 11.8851 17.6704 11.6806C17.8814 11.4761 18 11.1987 18 10.9095V6.54748C18 5.67982 17.6443 4.8477 17.0112 4.23418C16.378 3.62065 15.5193 3.27597 14.6239 3.27597Z" fill="#424752"/>
</svg>
