<svg width="30" height="30" viewBox="0 0 30 30" fill="none" xmlns="http://www.w3.org/2000/svg">
<rect width="30" height="30" fill="#F5F5F5"/>
<g id="Final Components">
<path d="M-7253 -1672C-7253 -1673.1 -7252.1 -1674 -7251 -1674H7734C7735.1 -1674 7736 -1673.1 7736 -1672V2239C7736 2240.1 7735.1 2241 7734 2241H-7251C-7252.1 2241 -7253 2240.1 -7253 2239V-1672Z" fill="white"/>
<path d="M-7251 -1673H7734V-1675H-7251V-1673ZM7735 -1672V2239H7737V-1672H7735ZM7734 2240H-7251V2242H7734V2240ZM-7252 2239V-1672H-7254V2239H-7252ZM-7251 2240C-7251.55 2240 -7252 2239.55 -7252 2239H-7254C-7254 2240.66 -7252.66 2242 -7251 2242V2240ZM7735 2239C7735 2239.55 7734.55 2240 7734 2240V2242C7735.66 2242 7737 2240.66 7737 2239H7735ZM7734 -1673C7734.55 -1673 7735 -1672.55 7735 -1672H7737C7737 -1673.66 7735.66 -1675 7734 -1675V-1673ZM-7251 -1675C-7252.66 -1675 -7254 -1673.66 -7254 -1672H-7252C-7252 -1672.55 -7251.55 -1673 -7251 -1673V-1675Z" fill="black" fill-opacity="0.1"/>
<g id="Document States">
<rect x="-19.5" y="-363.5" width="89" height="433" rx="4.5" stroke="#9747FF" stroke-dasharray="10 5"/>
<g id="Type=Zip">
<path id="Vector" d="M25.7812 8.4375H19.6875V2.34375C19.6875 2.21943 19.6381 2.1002 19.5502 2.01229C19.4623 1.92439 19.3431 1.875 19.2188 1.875H6.09375C5.96943 1.875 5.8502 1.92439 5.76229 2.01229C5.67439 2.1002 5.625 2.21943 5.625 2.34375V15.4688C5.625 15.5931 5.67439 15.7123 5.76229 15.8002C5.8502 15.8881 5.96943 15.9375 6.09375 15.9375H18.75V23.4375H6.09375C5.96943 23.4375 5.8502 23.4869 5.76229 23.5748C5.67439 23.6627 5.625 23.7819 5.625 23.9062V27.6562C5.625 27.7806 5.67439 27.8998 5.76229 27.9877C5.8502 28.0756 5.96943 28.125 6.09375 28.125H25.7812C25.9056 28.125 26.0248 28.0756 26.1127 27.9877C26.2006 27.8998 26.25 27.7806 26.25 27.6562V8.90625C26.25 8.78193 26.2006 8.6627 26.1127 8.57479C26.0248 8.48689 25.9056 8.4375 25.7812 8.4375Z" fill="#EEEEEE"/>
<path id="Vector_2" d="M19.2188 15H4.21875C3.95987 15 3.75 15.2099 3.75 15.4688V23.9062C3.75 24.1651 3.95987 24.375 4.21875 24.375H19.2188C19.4776 24.375 19.6875 24.1651 19.6875 23.9062V15.4688C19.6875 15.2099 19.4776 15 19.2188 15Z" fill="#FFA726"/>
<path id="Vector_3" d="M26.1141 8.57348L19.5516 2.01098C19.486 1.94487 19.4022 1.89979 19.311 1.88147C19.2197 1.86316 19.125 1.87244 19.039 1.90815C18.953 1.94385 18.8796 2.00435 18.8281 2.08194C18.7767 2.15953 18.7495 2.25069 18.75 2.34379V8.90629C18.75 9.03061 18.7994 9.14984 18.8873 9.23775C18.9752 9.32565 19.0944 9.37504 19.2188 9.37504H25.7813C25.8744 9.37558 25.9655 9.34838 26.0431 9.29691C26.1207 9.24545 26.1812 9.17204 26.2169 9.08605C26.2526 9.00006 26.2619 8.90538 26.2436 8.8141C26.2253 8.72281 26.1802 8.63904 26.1141 8.57348Z" fill="#E0E0E0"/>
<path id="Vector_4" d="M8.20312 21.5625V20.9906L9.99375 18.525H8.33906V17.8125H11.0766V18.3937L9.31406 20.85H11.0766V21.5625H8.20312ZM11.9391 21.5625V17.8125H12.7312V21.5625H11.9391ZM13.7578 21.5625V17.8125H15C15.3201 17.7912 15.637 17.8879 15.8906 18.0843C16.0187 18.1957 16.1201 18.3344 16.1874 18.4901C16.2548 18.6459 16.2863 18.8148 16.2797 18.9843C16.2834 19.2033 16.2266 19.419 16.1156 19.6078C16.006 19.7906 15.8422 19.9348 15.6469 20.0203C15.4774 20.0959 15.2933 20.1327 15.1078 20.1281H14.5312V21.5625H13.7578ZM14.5312 19.4437H15C15.1388 19.451 15.275 19.4039 15.3797 19.3125C15.426 19.2659 15.4621 19.2102 15.4855 19.1488C15.5089 19.0874 15.5192 19.0218 15.5156 18.9562C15.5156 18.6687 15.3437 18.525 15 18.525H14.5312V19.4437Z" fill="white"/>
</g>
</g>
</g>
</svg>
